STARTFONT 2.1
FONT -HP-HP System-Bold-R-Normal--16-120-72-72-P-94-ISO8859-2
SIZE 12 72 72
FONTBOUNDINGBOX 12 16 0 -4

STARTPROPERTIES 26
COPYRIGHT "Copyright (c) 1994-95, Hewlett-Packard Co. All rights reserved."
NOTICE "This Font is licensed for use on Hewlett-Packard Equipment only."
FONTNAME_REGISTRY ""
FAMILY_NAME "HP System"
FOUNDRY "HP"
WEIGHT_NAME "Bold"
SETWIDTH_NAME "Normal"
SLANT "R"
ADD_STYLE_NAME "Sans Serif"
PIXEL_SIZE 16
POINT_SIZE 120
RESOLUTION_X 72
RESOLUTION_Y 72
SPACING "P"
AVERAGE_WIDTH 94
CHARSET_REGISTRY "ISO8859"
CHARSET_ENCODING "2"
CHARSET_COLLECTIONS "ISO8859-2"
FULL_NAME "HP System16"
CAP_HEIGHT 9
X_HEIGHT 6
WEIGHT 10
QUAD_WIDTH 7
DEFAULT_CHAR 32
FONT_DESCENT 4
FONT_ASCENT 12
ENDPROPERTIES

CHARS 192

STARTCHAR space
ENCODING 32
SWIDTH 250 0
DWIDTH 3 0
BBX 1 1 0 0
BITMAP
00
ENDCHAR

STARTCHAR exclam
ENCODING 33
SWIDTH 416 0
DWIDTH 5 0
BBX 2 11 2 -1
BITMAP
C0
C0
C0
C0
C0
C0
C0
C0
00
C0
C0
ENDCHAR

STARTCHAR quotedbl
ENCODING 34
SWIDTH 500 0
DWIDTH 6 0
BBX 3 4 2 6
BITMAP
A0
A0
A0
A0
ENDCHAR

STARTCHAR numbersign
ENCODING 35
SWIDTH 666 0
DWIDTH 8 0
BBX 7 11 1 -1
BITMAP
6C
6C
6C
FE
6C
6C
6C
FE
6C
6C
6C
ENDCHAR

STARTCHAR dollar
ENCODING 36
SWIDTH 583 0
DWIDTH 7 0
BBX 6 13 1 -2
BITMAP
10
10
78
DC
D4
F0
78
3C
AC
EC
78
20
20
ENDCHAR

STARTCHAR percent
ENCODING 37
SWIDTH 1000 0
DWIDTH 12 0
BBX 11 11 1 -1
BITMAP
7180
D900
DB00
DA00
7600
0400
0DC0
0B60
1B60
1360
31C0
ENDCHAR

STARTCHAR ampersand
ENCODING 38
SWIDTH 666 0
DWIDTH 8 0
BBX 7 11 1 -1
BITMAP
78
CC
C0
C8
CC
7E
CC
CC
CC
CE
7C
ENDCHAR

STARTCHAR apostrophe
ENCODING 39
SWIDTH 333 0
DWIDTH 4 0
BBX 3 4 1 6
BITMAP
60
60
C0
80
ENDCHAR

STARTCHAR parenleft
ENCODING 40
SWIDTH 416 0
DWIDTH 5 0
BBX 4 13 1 -2
BITMAP
30
60
60
C0
C0
C0
C0
C0
C0
C0
60
60
30
ENDCHAR

STARTCHAR parenright
ENCODING 41
SWIDTH 416 0
DWIDTH 5 0
BBX 4 13 1 -2
BITMAP
C0
60
60
30
30
30
30
30
30
30
60
60
C0
ENDCHAR

STARTCHAR asterisk
ENCODING 42
SWIDTH 750 0
DWIDTH 9 0
BBX 8 7 1 1
BITMAP
18
DB
DB
3C
DB
DB
18
ENDCHAR

STARTCHAR plus
ENCODING 43
SWIDTH 750 0
DWIDTH 9 0
BBX 8 8 1 0
BITMAP
18
18
18
FF
FF
18
18
18
ENDCHAR

STARTCHAR comma
ENCODING 44
SWIDTH 333 0
DWIDTH 4 0
BBX 3 4 0 -2
BITMAP
60
60
C0
80
ENDCHAR

STARTCHAR minus
ENCODING 45
SWIDTH 750 0
DWIDTH 9 0
BBX 8 2 1 3
BITMAP
FF
FF
ENDCHAR

STARTCHAR period
ENCODING 46
SWIDTH 333 0
DWIDTH 4 0
BBX 2 2 1 0
BITMAP
C0
C0
ENDCHAR

STARTCHAR slash
ENCODING 47
SWIDTH 583 0
DWIDTH 7 0
BBX 6 13 1 -2
BITMAP
0C
0C
18
18
18
30
30
30
60
60
60
C0
C0
ENDCHAR

STARTCHAR 0
ENCODING 48
SWIDTH 583 0
DWIDTH 7 0
BBX 6 9 1 0
BITMAP
78
CC
CC
CC
CC
CC
CC
CC
78
ENDCHAR

STARTCHAR 1
ENCODING 49
SWIDTH 583 0
DWIDTH 7 0
BBX 4 9 2 0
BITMAP
30
70
F0
30
30
30
30
30
30
ENDCHAR

STARTCHAR 2
ENCODING 50
SWIDTH 583 0
DWIDTH 7 0
BBX 6 9 1 0
BITMAP
78
CC
CC
0C
1C
38
70
E0
FC
ENDCHAR

STARTCHAR 3
ENCODING 51
SWIDTH 583 0
DWIDTH 7 0
BBX 6 9 1 0
BITMAP
78
CC
CC
0C
38
0C
CC
CC
78
ENDCHAR

STARTCHAR 4
ENCODING 52
SWIDTH 583 0
DWIDTH 7 0
BBX 6 9 1 0
BITMAP
18
38
78
58
D8
98
FC
18
18
ENDCHAR

STARTCHAR 5
ENCODING 53
SWIDTH 583 0
DWIDTH 7 0
BBX 6 9 1 0
BITMAP
FC
C0
C0
F8
CC
0C
0C
CC
78
ENDCHAR

STARTCHAR 6
ENCODING 54
SWIDTH 583 0
DWIDTH 7 0
BBX 6 9 1 0
BITMAP
78
CC
C0
F8
CC
CC
CC
CC
78
ENDCHAR

STARTCHAR 7
ENCODING 55
SWIDTH 583 0
DWIDTH 7 0
BBX 6 9 1 0
BITMAP
FC
0C
0C
18
18
30
30
60
60
ENDCHAR

STARTCHAR 8
ENCODING 56
SWIDTH 583 0
DWIDTH 7 0
BBX 6 9 1 0
BITMAP
78
CC
CC
CC
78
CC
CC
CC
78
ENDCHAR

STARTCHAR 9
ENCODING 57
SWIDTH 583 0
DWIDTH 7 0
BBX 6 9 1 0
BITMAP
78
CC
CC
CC
CC
7C
0C
CC
78
ENDCHAR

STARTCHAR colon
ENCODING 58
SWIDTH 333 0
DWIDTH 4 0
BBX 2 6 1 0
BITMAP
C0
C0
00
00
C0
C0
ENDCHAR

STARTCHAR semicolon
ENCODING 59
SWIDTH 333 0
DWIDTH 4 0
BBX 3 8 0 -2
BITMAP
60
60
00
00
60
60
C0
80
ENDCHAR

STARTCHAR less
ENCODING 60
SWIDTH 750 0
DWIDTH 9 0
BBX 8 8 1 0
BITMAP
03
0F
3C
E0
E0
3C
0F
03
ENDCHAR

STARTCHAR equal
ENCODING 61
SWIDTH 750 0
DWIDTH 9 0
BBX 8 6 1 1
BITMAP
FF
FF
00
00
FF
FF
ENDCHAR

STARTCHAR greater
ENCODING 62
SWIDTH 750 0
DWIDTH 9 0
BBX 8 8 1 0
BITMAP
C0
F0
3C
07
07
3C
F0
C0
ENDCHAR

STARTCHAR question
ENCODING 63
SWIDTH 583 0
DWIDTH 7 0
BBX 6 11 1 -1
BITMAP
78
CC
CC
0C
18
30
30
30
00
30
30
ENDCHAR

STARTCHAR at
ENCODING 64
SWIDTH 1083 0
DWIDTH 13 0
BBX 10 11 2 -1
BITMAP
1E00
7300
6180
CF80
D980
D980
D980
CEC0
6000
7000
1F00
ENDCHAR

STARTCHAR A
ENCODING 65
SWIDTH 750 0
DWIDTH 9 0
BBX 8 9 1 0
BITMAP
18
18
3C
24
66
66
FF
C3
C3
ENDCHAR

STARTCHAR B
ENCODING 66
SWIDTH 666 0
DWIDTH 8 0
BBX 7 9 1 0
BITMAP
FC
C6
C6
C6
FC
C6
C6
C6
FC
ENDCHAR

STARTCHAR C
ENCODING 67
SWIDTH 750 0
DWIDTH 9 0
BBX 8 9 1 0
BITMAP
3C
66
C3
C0
C0
C0
C3
66
3C
ENDCHAR

STARTCHAR D
ENCODING 68
SWIDTH 666 0
DWIDTH 8 0
BBX 7 9 1 0
BITMAP
F8
CC
C6
C6
C6
C6
C6
CC
F8
ENDCHAR

STARTCHAR E
ENCODING 69
SWIDTH 583 0
DWIDTH 7 0
BBX 6 9 1 0
BITMAP
FC
C0
C0
C0
FC
C0
C0
C0
FC
ENDCHAR

STARTCHAR F
ENCODING 70
SWIDTH 583 0
DWIDTH 7 0
BBX 6 9 1 0
BITMAP
FC
C0
C0
C0
FC
C0
C0
C0
C0
ENDCHAR

STARTCHAR G
ENCODING 71
SWIDTH 750 0
DWIDTH 9 0
BBX 8 9 1 0
BITMAP
3C
66
C3
C0
C0
CF
C3
63
3E
ENDCHAR

STARTCHAR H
ENCODING 72
SWIDTH 666 0
DWIDTH 8 0
BBX 7 9 1 0
BITMAP
C6
C6
C6
C6
FE
C6
C6
C6
C6
ENDCHAR

STARTCHAR I
ENCODING 73
SWIDTH 250 0
DWIDTH 3 0
BBX 2 9 1 0
BITMAP
C0
C0
C0
C0
C0
C0
C0
C0
C0
ENDCHAR

STARTCHAR J
ENCODING 74
SWIDTH 583 0
DWIDTH 7 0
BBX 6 9 1 0
BITMAP
0C
0C
0C
0C
0C
0C
CC
CC
78
ENDCHAR

STARTCHAR K
ENCODING 75
SWIDTH 666 0
DWIDTH 8 0
BBX 7 9 1 0
BITMAP
C6
CC
D8
F0
F0
D8
CC
C6
C2
ENDCHAR

STARTCHAR L
ENCODING 76
SWIDTH 583 0
DWIDTH 7 0
BBX 6 9 1 0
BITMAP
C0
C0
C0
C0
C0
C0
C0
C0
FC
ENDCHAR

STARTCHAR M
ENCODING 77
SWIDTH 916 0
DWIDTH 11 0
BBX 10 9 1 0
BITMAP
C0C0
E1C0
E1C0
F3C0
DEC0
DEC0
CCC0
CCC0
C0C0
ENDCHAR

STARTCHAR N
ENCODING 78
SWIDTH 750 0
DWIDTH 9 0
BBX 8 9 1 0
BITMAP
E3
E3
F3
D3
DB
CB
CF
C7
C7
ENDCHAR

STARTCHAR O
ENCODING 79
SWIDTH 750 0
DWIDTH 9 0
BBX 8 9 1 0
BITMAP
3C
66
C3
C3
C3
C3
C3
66
3C
ENDCHAR

STARTCHAR P
ENCODING 80
SWIDTH 583 0
DWIDTH 7 0
BBX 6 9 1 0
BITMAP
F8
CC
CC
CC
F8
C0
C0
C0
C0
ENDCHAR

STARTCHAR Q
ENCODING 81
SWIDTH 750 0
DWIDTH 9 0
BBX 8 10 1 -1
BITMAP
3C
66
C3
C3
C3
C3
DB
6E
3E
03
ENDCHAR

STARTCHAR R
ENCODING 82
SWIDTH 666 0
DWIDTH 8 0
BBX 7 9 1 0
BITMAP
FC
C6
C6
C6
FC
C6
C6
C6
C6
ENDCHAR

STARTCHAR S
ENCODING 83
SWIDTH 666 0
DWIDTH 8 0
BBX 7 9 1 0
BITMAP
7C
C6
C2
70
3C
0E
86
C6
7C
ENDCHAR

STARTCHAR T
ENCODING 84
SWIDTH 583 0
DWIDTH 7 0
BBX 6 9 1 0
BITMAP
FC
30
30
30
30
30
30
30
30
ENDCHAR

STARTCHAR U
ENCODING 85
SWIDTH 666 0
DWIDTH 8 0
BBX 7 9 1 0
BITMAP
C6
C6
C6
C6
C6
C6
C6
EE
7C
ENDCHAR

STARTCHAR V
ENCODING 86
SWIDTH 750 0
DWIDTH 9 0
BBX 8 9 1 0
BITMAP
C3
C3
66
66
66
3C
3C
18
18
ENDCHAR

STARTCHAR W
ENCODING 87
SWIDTH 1000 0
DWIDTH 12 0
BBX 11 9 1 0
BITMAP
C460
C460
CE60
6EC0
6AC0
7BC0
3180
3180
3180
ENDCHAR

STARTCHAR X
ENCODING 88
SWIDTH 916 0
DWIDTH 11 0
BBX 10 9 1 0
BITMAP
C0C0
6180
3300
1E00
0C00
1E00
3300
6180
C0C0
ENDCHAR

STARTCHAR Y
ENCODING 89
SWIDTH 750 0
DWIDTH 9 0
BBX 8 9 1 0
BITMAP
C3
C3
66
66
3C
18
18
18
18
ENDCHAR

STARTCHAR Z
ENCODING 90
SWIDTH 666 0
DWIDTH 8 0
BBX 7 9 1 0
BITMAP
FE
06
0C
18
38
30
60
C0
FE
ENDCHAR

STARTCHAR bracketleft
ENCODING 91
SWIDTH 500 0
DWIDTH 6 0
BBX 4 13 2 -2
BITMAP
F0
C0
C0
C0
C0
C0
C0
C0
C0
C0
C0
C0
F0
ENDCHAR

STARTCHAR backslash
ENCODING 92
SWIDTH 583 0
DWIDTH 7 0
BBX 6 13 1 -2
BITMAP
C0
C0
60
60
60
30
30
30
18
18
18
0C
0C
ENDCHAR

STARTCHAR bracketright
ENCODING 93
SWIDTH 500 0
DWIDTH 6 0
BBX 4 13 1 -2
BITMAP
F0
30
30
30
30
30
30
30
30
30
30
30
F0
ENDCHAR

STARTCHAR asciicircum
ENCODING 94
SWIDTH 750 0
DWIDTH 9 0
BBX 6 3 2 6
BITMAP
30
78
CC
ENDCHAR

STARTCHAR underscore
ENCODING 95
SWIDTH 500 0
DWIDTH 6 0
BBX 6 1 0 -1
BITMAP
FC
ENDCHAR

STARTCHAR grave
ENCODING 96
SWIDTH 333 0
DWIDTH 4 0
BBX 3 4 1 6
BITMAP
20
60
C0
C0
ENDCHAR

STARTCHAR a
ENCODING 97
SWIDTH 583 0
DWIDTH 7 0
BBX 6 6 1 0
BITMAP
78
0C
7C
CC
CC
7C
ENDCHAR

STARTCHAR b
ENCODING 98
SWIDTH 583 0
DWIDTH 7 0
BBX 6 9 1 0
BITMAP
C0
C0
C0
F8
CC
CC
CC
CC
F8
ENDCHAR

STARTCHAR c
ENCODING 99
SWIDTH 583 0
DWIDTH 7 0
BBX 6 6 1 0
BITMAP
78
CC
C0
C0
CC
78
ENDCHAR

STARTCHAR d
ENCODING 100
SWIDTH 583 0
DWIDTH 7 0
BBX 6 9 1 0
BITMAP
0C
0C
0C
7C
CC
CC
CC
CC
7C
ENDCHAR

STARTCHAR e
ENCODING 101
SWIDTH 583 0
DWIDTH 7 0
BBX 6 6 1 0
BITMAP
78
CC
FC
C0
CC
78
ENDCHAR

STARTCHAR f
ENCODING 102
SWIDTH 416 0
DWIDTH 5 0
BBX 4 9 1 0
BITMAP
30
60
60
F0
60
60
60
60
60
ENDCHAR

STARTCHAR g
ENCODING 103
SWIDTH 583 0
DWIDTH 7 0
BBX 6 9 1 -3
BITMAP
7C
CC
CC
CC
CC
7C
0C
CC
78
ENDCHAR

STARTCHAR h
ENCODING 104
SWIDTH 583 0
DWIDTH 7 0
BBX 6 9 1 0
BITMAP
C0
C0
C0
D8
EC
CC
CC
CC
CC
ENDCHAR

STARTCHAR i
ENCODING 105
SWIDTH 250 0
DWIDTH 3 0
BBX 2 9 1 0
BITMAP
C0
C0
00
C0
C0
C0
C0
C0
C0
ENDCHAR

STARTCHAR j
ENCODING 106
SWIDTH 416 0
DWIDTH 5 0
BBX 3 12 1 -3
BITMAP
60
60
00
60
60
60
60
60
60
60
60
C0
ENDCHAR

STARTCHAR k
ENCODING 107
SWIDTH 583 0
DWIDTH 7 0
BBX 6 9 1 0
BITMAP
C0
C0
C0
CC
D8
F0
F0
D8
CC
ENDCHAR

STARTCHAR l
ENCODING 108
SWIDTH 250 0
DWIDTH 3 0
BBX 2 9 1 0
BITMAP
C0
C0
C0
C0
C0
C0
C0
C0
C0
ENDCHAR

STARTCHAR m
ENCODING 109
SWIDTH 916 0
DWIDTH 11 0
BBX 10 6 1 0
BITMAP
D980
EEC0
CCC0
CCC0
CCC0
CCC0
ENDCHAR

STARTCHAR n
ENCODING 110
SWIDTH 583 0
DWIDTH 7 0
BBX 6 6 1 0
BITMAP
D8
EC
CC
CC
CC
CC
ENDCHAR

STARTCHAR o
ENCODING 111
SWIDTH 583 0
DWIDTH 7 0
BBX 6 6 1 0
BITMAP
78
CC
CC
CC
CC
78
ENDCHAR

STARTCHAR p
ENCODING 112
SWIDTH 583 0
DWIDTH 7 0
BBX 6 9 1 -3
BITMAP
F8
CC
CC
CC
CC
F8
C0
C0
C0
ENDCHAR

STARTCHAR q
ENCODING 113
SWIDTH 583 0
DWIDTH 7 0
BBX 6 9 1 -3
BITMAP
7C
CC
CC
CC
CC
7C
0C
0C
0C
ENDCHAR

STARTCHAR r
ENCODING 114
SWIDTH 500 0
DWIDTH 6 0
BBX 5 6 1 0
BITMAP
D8
E0
C0
C0
C0
C0
ENDCHAR

STARTCHAR s
ENCODING 115
SWIDTH 583 0
DWIDTH 7 0
BBX 6 6 1 0
BITMAP
78
C4
F0
3C
8C
78
ENDCHAR

STARTCHAR t
ENCODING 116
SWIDTH 500 0
DWIDTH 6 0
BBX 5 8 1 0
BITMAP
20
60
F8
60
60
60
60
38
ENDCHAR

STARTCHAR u
ENCODING 117
SWIDTH 583 0
DWIDTH 7 0
BBX 6 6 1 0
BITMAP
CC
CC
CC
CC
DC
6C
ENDCHAR

STARTCHAR v
ENCODING 118
SWIDTH 583 0
DWIDTH 7 0
BBX 6 6 1 0
BITMAP
CC
CC
48
78
30
30
ENDCHAR

STARTCHAR w
ENCODING 119
SWIDTH 916 0
DWIDTH 11 0
BBX 10 6 1 0
BITMAP
CCC0
CCC0
6D80
7F80
3300
3300
ENDCHAR

STARTCHAR x
ENCODING 120
SWIDTH 666 0
DWIDTH 8 0
BBX 7 6 1 0
BITMAP
C6
6C
38
38
6C
C6
ENDCHAR

STARTCHAR y
ENCODING 121
SWIDTH 583 0
DWIDTH 7 0
BBX 6 9 1 -3
BITMAP
CC
CC
48
78
30
30
30
60
60
ENDCHAR

STARTCHAR z
ENCODING 122
SWIDTH 500 0
DWIDTH 6 0
BBX 5 6 1 0
BITMAP
F8
18
30
60
C0
F8
ENDCHAR

STARTCHAR braceleft
ENCODING 123
SWIDTH 583 0
DWIDTH 7 0
BBX 6 13 1 -2
BITMAP
1C
30
30
30
30
30
E0
30
30
30
30
30
1C
ENDCHAR

STARTCHAR bar
ENCODING 124
SWIDTH 416 0
DWIDTH 5 0
BBX 2 11 2 -1
BITMAP
C0
C0
C0
C0
C0
C0
C0
C0
C0
C0
C0
ENDCHAR

STARTCHAR braceright
ENCODING 125
SWIDTH 583 0
DWIDTH 7 0
BBX 6 13 1 -2
BITMAP
E0
30
30
30
30
30
1C
30
30
30
30
30
E0
ENDCHAR

STARTCHAR asciitilde
ENCODING 126
SWIDTH 750 0
DWIDTH 9 0
BBX 8 4 1 3
BITMAP
30
79
9E
0C
ENDCHAR

STARTCHAR C000177
ENCODING 127
SWIDTH 833 0
DWIDTH 10 0
BBX 10 16 0 -4
BITMAP
AA80
5540
AA80
5540
AA80
5540
AA80
5540
AA80
5540
AA80
5540
AA80
5540
AA80
5540
ENDCHAR

STARTCHAR NoBreakSpace
ENCODING 160
SWIDTH 250 0
DWIDTH 3 0
BBX 1 1 0 0
BITMAP
00
ENDCHAR

STARTCHAR Aogonek
ENCODING 161
SWIDTH 833 0
DWIDTH 10 0
BBX 9 11 1 -2
BITMAP
1800
1800
3C00
2400
6600
6600
FF00
C300
C300
0200
0380
ENDCHAR

STARTCHAR breve
ENCODING 162
SWIDTH 500 0
DWIDTH 6 0
BBX 5 2 1 9
BITMAP
88
70
ENDCHAR

STARTCHAR Lstroke
ENCODING 163
SWIDTH 666 0
DWIDTH 8 0
BBX 7 9 1 0
BITMAP
60
60
70
60
E0
60
60
60
7E
ENDCHAR

STARTCHAR currencysign
ENCODING 164
SWIDTH 750 0
DWIDTH 9 0
BBX 8 8 1 1
BITMAP
C3
FF
66
42
42
66
FF
C3
ENDCHAR

STARTCHAR Lhacek
ENCODING 165
SWIDTH 583 0
DWIDTH 7 0
BBX 6 10 1 0
BITMAP
0C
D8
C0
C0
C0
C0
C0
C0
C0
FC
ENDCHAR

STARTCHAR Sacute
ENCODING 166
SWIDTH 666 0
DWIDTH 8 0
BBX 7 12 1 0
BITMAP
0C
18
00
7C
C6
C2
70
3C
0E
86
C6
7C
ENDCHAR

STARTCHAR paragraphsign
ENCODING 167
SWIDTH 500 0
DWIDTH 6 0
BBX 5 10 1 -1
BITMAP
70
98
C0
70
98
C8
70
18
C8
70
ENDCHAR

STARTCHAR diaeresis
ENCODING 168
SWIDTH 500 0
DWIDTH 6 0
BBX 4 2 1 7
BITMAP
90
90
ENDCHAR

STARTCHAR Scaron
ENCODING 169
SWIDTH 666 0
DWIDTH 8 0
BBX 7 12 1 0
BITMAP
24
18
00
7C
C6
C2
70
3C
0E
86
C6
7C
ENDCHAR

STARTCHAR Scedilla
ENCODING 170
SWIDTH 666 0
DWIDTH 8 0
BBX 7 11 1 -2
BITMAP
7C
C6
C2
70
3C
0E
86
C6
7C
10
70
ENDCHAR

STARTCHAR Tcaron
ENCODING 171
SWIDTH 583 0
DWIDTH 7 0
BBX 6 12 1 0
BITMAP
48
30
00
FC
30
30
30
30
30
30
30
30
ENDCHAR

STARTCHAR Zacute
ENCODING 172
SWIDTH 666 0
DWIDTH 8 0
BBX 7 12 1 0
BITMAP
18
30
00
FE
06
0C
18
38
30
60
C0
FE
ENDCHAR

STARTCHAR softhyphen
ENCODING 173
SWIDTH 750 0
DWIDTH 9 0
BBX 5 2 2 3
BITMAP
F8
F8
ENDCHAR

STARTCHAR Zcaron
ENCODING 174
SWIDTH 666 0
DWIDTH 8 0
BBX 7 12 1 0
BITMAP
48
30
00
FE
06
0C
18
38
30
60
C0
FE
ENDCHAR

STARTCHAR Zdotabove
ENCODING 175
SWIDTH 666 0
DWIDTH 8 0
BBX 7 12 1 0
BITMAP
10
10
00
FE
06
0C
18
38
30
60
C0
FE
ENDCHAR

STARTCHAR degreesign
ENCODING 176
SWIDTH 416 0
DWIDTH 5 0
BBX 4 4 1 5
BITMAP
60
90
90
60
ENDCHAR

STARTCHAR aogonek
ENCODING 177
SWIDTH 666 0
DWIDTH 8 0
BBX 7 8 1 -2
BITMAP
78
0C
7C
CC
CC
7C
08
0E
ENDCHAR

STARTCHAR ogonek
ENCODING 178
SWIDTH 500 0
DWIDTH 6 0
BBX 3 2 2 -2
BITMAP
80
E0
ENDCHAR

STARTCHAR lstroke
ENCODING 179
SWIDTH 500 0
DWIDTH 6 0
BBX 4 9 1 0
BITMAP
60
60
70
60
E0
60
60
60
60
ENDCHAR

STARTCHAR acute
ENCODING 180
SWIDTH 500 0
DWIDTH 6 0
BBX 3 2 2 7
BITMAP
60
C0
ENDCHAR

STARTCHAR lhacek
ENCODING 181
SWIDTH 500 0
DWIDTH 6 0
BBX 5 10 1 0
BITMAP
08
D8
D0
C0
C0
C0
C0
C0
C0
C0
ENDCHAR

STARTCHAR sacute
ENCODING 182
SWIDTH 583 0
DWIDTH 7 0
BBX 6 9 1 0
BITMAP
18
30
00
78
C4
F0
3C
8C
78
ENDCHAR

STARTCHAR caron
ENCODING 183
SWIDTH 416 0
DWIDTH 5 0
BBX 4 2 1 8
BITMAP
90
60
ENDCHAR

STARTCHAR cedilla
ENCODING 184
SWIDTH 666 0
DWIDTH 8 0
BBX 3 2 2 -2
BITMAP
20
E0
ENDCHAR

STARTCHAR scaron
ENCODING 185
SWIDTH 583 0
DWIDTH 7 0
BBX 6 9 1 0
BITMAP
48
30
00
78
C4
F0
3C
8C
78
ENDCHAR

STARTCHAR scedilla
ENCODING 186
SWIDTH 583 0
DWIDTH 7 0
BBX 6 8 1 -2
BITMAP
78
C4
F0
3C
8C
78
10
70
ENDCHAR

STARTCHAR thacek
ENCODING 187
SWIDTH 583 0
DWIDTH 7 0
BBX 6 10 1 0
BITMAP
04
0C
28
60
F8
60
60
60
60
38
ENDCHAR

STARTCHAR zacute
ENCODING 188
SWIDTH 500 0
DWIDTH 6 0
BBX 5 9 1 0
BITMAP
30
60
00
F8
18
30
60
C0
F8
ENDCHAR

STARTCHAR doubleaccute
ENCODING 189
SWIDTH 583 0
DWIDTH 7 0
BBX 6 2 1 8
BITMAP
6C
D8
ENDCHAR

STARTCHAR zcaron
ENCODING 190
SWIDTH 500 0
DWIDTH 6 0
BBX 5 9 1 0
BITMAP
90
60
00
F8
18
30
60
C0
F8
ENDCHAR

STARTCHAR zdotabove
ENCODING 191
SWIDTH 500 0
DWIDTH 6 0
BBX 5 9 1 0
BITMAP
20
20
00
F8
18
30
60
C0
F8
ENDCHAR

STARTCHAR Racute
ENCODING 192
SWIDTH 666 0
DWIDTH 8 0
BBX 7 12 1 0
BITMAP
18
30
00
FC
C6
C6
C6
FC
C6
C6
C6
C6
ENDCHAR

STARTCHAR Aacute
ENCODING 193
SWIDTH 750 0
DWIDTH 9 0
BBX 8 12 1 0
BITMAP
0C
18
00
18
18
3C
24
66
66
FF
C3
C3
ENDCHAR

STARTCHAR Acircumflex
ENCODING 194
SWIDTH 750 0
DWIDTH 9 0
BBX 8 12 1 0
BITMAP
18
24
00
18
18
3C
24
66
66
FF
C3
C3
ENDCHAR

STARTCHAR Abreve
ENCODING 195
SWIDTH 750 0
DWIDTH 9 0
BBX 8 12 1 0
BITMAP
42
3C
00
18
18
3C
24
66
66
FF
C3
C3
ENDCHAR

STARTCHAR Adiaresis
ENCODING 196
SWIDTH 750 0
DWIDTH 9 0
BBX 8 12 1 0
BITMAP
24
24
00
18
18
3C
24
66
66
FF
C3
C3
ENDCHAR

STARTCHAR Lacute
ENCODING 197
SWIDTH 583 0
DWIDTH 7 0
BBX 6 12 1 0
BITMAP
30
60
00
C0
C0
C0
C0
C0
C0
C0
C0
FC
ENDCHAR

STARTCHAR Cacute
ENCODING 198
SWIDTH 750 0
DWIDTH 9 0
BBX 8 12 1 0
BITMAP
0C
18
00
3C
66
C3
C0
C0
C0
C3
66
3C
ENDCHAR

STARTCHAR Ccedilla
ENCODING 199
SWIDTH 750 0
DWIDTH 9 0
BBX 8 11 1 -2
BITMAP
3C
66
C3
C0
C0
C0
C3
66
3C
08
38
ENDCHAR

STARTCHAR Ccaron
ENCODING 200
SWIDTH 750 0
DWIDTH 9 0
BBX 8 12 1 0
BITMAP
24
18
00
3C
66
C3
C0
C0
C0
C3
66
3C
ENDCHAR

STARTCHAR Eacute
ENCODING 201
SWIDTH 583 0
DWIDTH 7 0
BBX 6 12 1 0
BITMAP
18
30
00
FC
C0
C0
C0
FC
C0
C0
C0
FC
ENDCHAR

STARTCHAR Eogonek
ENCODING 202
SWIDTH 583 0
DWIDTH 7 0
BBX 6 11 1 -2
BITMAP
FC
C0
C0
C0
FC
C0
C0
C0
FC
20
38
ENDCHAR

STARTCHAR Ediaeresis
ENCODING 203
SWIDTH 583 0
DWIDTH 7 0
BBX 6 12 1 0
BITMAP
48
48
00
FC
C0
C0
C0
FC
C0
C0
C0
FC
ENDCHAR

STARTCHAR Ecaron
ENCODING 204
SWIDTH 583 0
DWIDTH 7 0
BBX 6 12 1 0
BITMAP
48
30
00
FC
C0
C0
C0
FC
C0
C0
C0
FC
ENDCHAR

STARTCHAR Iacute
ENCODING 205
SWIDTH 250 0
DWIDTH 3 0
BBX 3 12 0 0
BITMAP
60
C0
00
60
60
60
60
60
60
60
60
60
ENDCHAR

STARTCHAR Icircumflex
ENCODING 206
SWIDTH 250 0
DWIDTH 3 0
BBX 3 12 0 0
BITMAP
40
A0
00
60
60
60
60
60
60
60
60
60
ENDCHAR

STARTCHAR Dcaron
ENCODING 207
SWIDTH 666 0
DWIDTH 8 0
BBX 7 12 1 0
BITMAP
48
30
00
F8
CC
C6
C6
C6
C6
C6
CC
F8
ENDCHAR

STARTCHAR Dstroke
ENCODING 208
SWIDTH 750 0
DWIDTH 9 0
BBX 8 9 1 0
BITMAP
7C
66
63
63
FB
63
63
66
7C
ENDCHAR

STARTCHAR Nacute
ENCODING 209
SWIDTH 750 0
DWIDTH 9 0
BBX 8 12 1 0
BITMAP
0C
18
00
E3
E3
F3
D3
DB
CB
CF
C7
C7
ENDCHAR

STARTCHAR Ncaron
ENCODING 210
SWIDTH 750 0
DWIDTH 9 0
BBX 8 12 1 0
BITMAP
24
18
00
E3
E3
F3
D3
DB
CB
CF
C7
C7
ENDCHAR

STARTCHAR Oacute
ENCODING 211
SWIDTH 750 0
DWIDTH 9 0
BBX 8 12 1 0
BITMAP
0C
18
00
3C
66
C3
C3
C3
C3
C3
66
3C
ENDCHAR

STARTCHAR Ocircumflex
ENCODING 212
SWIDTH 750 0
DWIDTH 9 0
BBX 8 12 1 0
BITMAP
18
24
00
3C
66
C3
C3
C3
C3
C3
66
3C
ENDCHAR

STARTCHAR Odoubleacute
ENCODING 213
SWIDTH 750 0
DWIDTH 9 0
BBX 8 12 1 0
BITMAP
36
6C
00
3C
66
C3
C3
C3
C3
C3
66
3C
ENDCHAR

STARTCHAR Odiaeresis
ENCODING 214
SWIDTH 750 0
DWIDTH 9 0
BBX 8 12 1 0
BITMAP
24
24
00
3C
66
C3
C3
C3
C3
C3
66
3C
ENDCHAR

STARTCHAR multiplication
ENCODING 215
SWIDTH 750 0
DWIDTH 9 0
BBX 7 7 1 1
BITMAP
C6
EE
7C
38
7C
EE
C6
ENDCHAR

STARTCHAR Rcaron
ENCODING 216
SWIDTH 666 0
DWIDTH 8 0
BBX 7 12 1 0
BITMAP
48
30
00
FC
C6
C6
C6
FC
C6
C6
C6
C6
ENDCHAR

STARTCHAR Uringabove
ENCODING 217
SWIDTH 666 0
DWIDTH 8 0
BBX 7 12 1 0
BITMAP
10
28
10
C6
C6
C6
C6
C6
C6
C6
EE
7C
ENDCHAR

STARTCHAR Uacute
ENCODING 218
SWIDTH 666 0
DWIDTH 8 0
BBX 7 12 1 0
BITMAP
18
30
00
C6
C6
C6
C6
C6
C6
C6
EE
7C
ENDCHAR

STARTCHAR Udoubleacute
ENCODING 219
SWIDTH 666 0
DWIDTH 8 0
BBX 7 12 1 0
BITMAP
36
6C
00
C6
C6
C6
C6
C6
C6
C6
EE
7C
ENDCHAR

STARTCHAR Udiaeresis
ENCODING 220
SWIDTH 666 0
DWIDTH 8 0
BBX 7 12 1 0
BITMAP
44
44
00
C6
C6
C6
C6
C6
C6
C6
EE
7C
ENDCHAR

STARTCHAR Yacute
ENCODING 221
SWIDTH 750 0
DWIDTH 9 0
BBX 8 12 1 0
BITMAP
0C
18
00
C3
C3
66
66
3C
18
18
18
18
ENDCHAR

STARTCHAR Tcedilla
ENCODING 222
SWIDTH 583 0
DWIDTH 7 0
BBX 6 12 1 -3
BITMAP
FC
30
30
30
30
30
30
30
30
00
60
C0
ENDCHAR

STARTCHAR germansharps
ENCODING 223
SWIDTH 666 0
DWIDTH 8 0
BBX 7 11 1 -2
BITMAP
78
CC
CC
D8
D8
CC
C6
D6
DC
C0
C0
ENDCHAR

STARTCHAR racute
ENCODING 224
SWIDTH 500 0
DWIDTH 6 0
BBX 5 9 1 0
BITMAP
30
60
00
D8
E0
C0
C0
C0
C0
ENDCHAR

STARTCHAR aacute
ENCODING 225
SWIDTH 583 0
DWIDTH 7 0
BBX 6 9 1 0
BITMAP
18
30
00
78
0C
7C
CC
CC
7C
ENDCHAR

STARTCHAR acircumflex
ENCODING 226
SWIDTH 583 0
DWIDTH 7 0
BBX 6 9 1 0
BITMAP
30
48
00
78
0C
7C
CC
CC
7C
ENDCHAR

STARTCHAR abreve
ENCODING 227
SWIDTH 583 0
DWIDTH 7 0
BBX 6 9 1 0
BITMAP
44
38
00
78
0C
7C
CC
CC
7C
ENDCHAR

STARTCHAR adiaresis
ENCODING 228
SWIDTH 583 0
DWIDTH 7 0
BBX 6 9 1 0
BITMAP
48
48
00
78
0C
7C
CC
CC
7C
ENDCHAR

STARTCHAR lacute
ENCODING 229
SWIDTH 416 0
DWIDTH 5 0
BBX 3 12 2 0
BITMAP
60
C0
00
C0
C0
C0
C0
C0
C0
C0
C0
C0
ENDCHAR

STARTCHAR cacute
ENCODING 230
SWIDTH 583 0
DWIDTH 7 0
BBX 6 9 1 0
BITMAP
18
30
00
78
CC
C0
C0
CC
78
ENDCHAR

STARTCHAR ccedilla
ENCODING 231
SWIDTH 583 0
DWIDTH 7 0
BBX 6 8 1 -2
BITMAP
78
CC
C0
C0
CC
78
10
70
ENDCHAR

STARTCHAR ccaron
ENCODING 232
SWIDTH 583 0
DWIDTH 7 0
BBX 6 9 1 0
BITMAP
48
30
00
78
CC
C0
C0
CC
78
ENDCHAR

STARTCHAR eacute
ENCODING 233
SWIDTH 583 0
DWIDTH 7 0
BBX 6 9 1 0
BITMAP
18
30
00
78
CC
FC
C0
CC
78
ENDCHAR

STARTCHAR eogonek
ENCODING 234
SWIDTH 583 0
DWIDTH 7 0
BBX 6 8 1 -2
BITMAP
78
CC
FC
C0
CC
78
20
38
ENDCHAR

STARTCHAR ediaeresis
ENCODING 235
SWIDTH 583 0
DWIDTH 7 0
BBX 6 9 1 0
BITMAP
48
48
00
78
CC
FC
C0
CC
78
ENDCHAR

STARTCHAR ecaron
ENCODING 236
SWIDTH 583 0
DWIDTH 7 0
BBX 6 9 1 0
BITMAP
48
30
00
78
CC
FC
C0
CC
78
ENDCHAR

STARTCHAR iacute
ENCODING 237
SWIDTH 250 0
DWIDTH 3 0
BBX 3 9 0 0
BITMAP
60
C0
00
60
60
60
60
60
60
ENDCHAR

STARTCHAR icircumflex
ENCODING 238
SWIDTH 250 0
DWIDTH 3 0
BBX 3 9 0 0
BITMAP
40
A0
00
60
60
60
60
60
60
ENDCHAR

STARTCHAR dhacek
ENCODING 239
SWIDTH 833 0
DWIDTH 10 0
BBX 9 10 1 0
BITMAP
0080
0D80
0D00
0C00
7C00
CC00
CC00
CC00
CC00
7C00
ENDCHAR

STARTCHAR dstroke
ENCODING 240
SWIDTH 666 0
DWIDTH 8 0
BBX 7 9 1 0
BITMAP
0C
3E
0C
7C
CC
CC
CC
CC
7C
ENDCHAR

STARTCHAR nacute
ENCODING 241
SWIDTH 583 0
DWIDTH 7 0
BBX 6 9 1 0
BITMAP
18
30
00
D8
EC
CC
CC
CC
CC
ENDCHAR

STARTCHAR ncaron
ENCODING 242
SWIDTH 583 0
DWIDTH 7 0
BBX 6 9 1 0
BITMAP
48
30
00
D8
EC
CC
CC
CC
CC
ENDCHAR

STARTCHAR oacute
ENCODING 243
SWIDTH 583 0
DWIDTH 7 0
BBX 6 9 1 0
BITMAP
18
30
00
78
CC
CC
CC
CC
78
ENDCHAR

STARTCHAR ocircumflex
ENCODING 244
SWIDTH 583 0
DWIDTH 7 0
BBX 6 9 1 0
BITMAP
30
48
00
78
CC
CC
CC
CC
78
ENDCHAR

STARTCHAR odoubleacute
ENCODING 245
SWIDTH 583 0
DWIDTH 7 0
BBX 6 9 1 0
BITMAP
6C
D8
00
78
CC
CC
CC
CC
78
ENDCHAR

STARTCHAR odiaeresis
ENCODING 246
SWIDTH 583 0
DWIDTH 7 0
BBX 6 9 1 0
BITMAP
48
48
00
78
CC
CC
CC
CC
78
ENDCHAR

STARTCHAR division
ENCODING 247
SWIDTH 750 0
DWIDTH 9 0
BBX 8 8 1 0
BITMAP
18
18
00
FF
FF
00
18
18
ENDCHAR

STARTCHAR rcaron
ENCODING 248
SWIDTH 500 0
DWIDTH 6 0
BBX 5 9 1 0
BITMAP
90
60
00
D8
E0
C0
C0
C0
C0
ENDCHAR

STARTCHAR urignabove
ENCODING 249
SWIDTH 583 0
DWIDTH 7 0
BBX 6 10 1 0
BITMAP
30
48
30
00
CC
CC
CC
CC
DC
6C
ENDCHAR

STARTCHAR uacute
ENCODING 250
SWIDTH 583 0
DWIDTH 7 0
BBX 6 9 1 0
BITMAP
18
30
00
CC
CC
CC
CC
DC
6C
ENDCHAR

STARTCHAR udoubleacute
ENCODING 251
SWIDTH 583 0
DWIDTH 7 0
BBX 6 9 1 0
BITMAP
6C
D8
00
CC
CC
CC
CC
DC
6C
ENDCHAR

STARTCHAR udiaeresis
ENCODING 252
SWIDTH 583 0
DWIDTH 7 0
BBX 6 9 1 0
BITMAP
48
48
00
CC
CC
CC
CC
DC
6C
ENDCHAR

STARTCHAR yacute
ENCODING 253
SWIDTH 583 0
DWIDTH 7 0
BBX 6 12 1 -3
BITMAP
18
30
00
CC
CC
48
78
30
30
30
60
60
ENDCHAR

STARTCHAR tcedilla
ENCODING 254
SWIDTH 500 0
DWIDTH 6 0
BBX 5 11 1 -3
BITMAP
20
60
F8
60
60
60
60
38
00
60
C0
ENDCHAR

STARTCHAR dotabove
ENCODING 255
SWIDTH 416 0
DWIDTH 5 0
BBX 1 2 2 7
BITMAP
80
80
ENDCHAR
ENDFONT
